# xmcd CD database file
#
# Track frame offsets:
#	150
#	16637
#	33817
#	50891
#	66812
#
# Disc length: 1134 seconds
#
# Revision: 0
# Processed by: cddbd v1.5.1PL2 Copyright (c) Steve Scherf et al.
# Submitted via: CDex 1.51
#
DISCID=36046c05
DTITLE=Free Dominguez - Core: A Zone EP
DYEAR=2006
DGENRE=Singer/Songwriter
TTITLE0=Laurel Canyon
TTITLE1=The Sun Dims With His Smile
TTITLE2=Devil I Know
TTITLE3=It's Always Nice To Love Someone
TTITLE4=Silver Line
EXTD=YEAR: 2006
EXTT0=
EXTT1=
EXTT2=
EXTT3=
EXTT4=
PLAYORDER=
